<svg width="209" height="28" viewBox="0 0 209 28" fill="none" xmlns="http://www.w3.org/2000/svg">
<path d="M0.8 27V1.24H14.2C16.3067 1.24 18.0267 1.62667 19.36 2.4C20.72 3.17333 21.7333 4.25333 22.4 5.64C23.0667 7 23.4 8.58667 23.4 10.4C23.4 12.1333 22.96 13.6667 22.08 15C21.2267 16.3067 20.08 17.3067 18.64 18C18.9333 18.24 19.1867 18.5333 19.4 18.88C19.6133 19.2 19.8533 19.6533 20.12 20.24L23.08 27H15.24L12.52 20.8C12.3067 20.32 12.04 19.9867 11.72 19.8C11.4267 19.5867 11 19.48 10.44 19.48H8.32V27H0.8ZM8.32 13.72H12.28C13.3733 13.72 14.2133 13.44 14.8 12.88C15.4133 12.2933 15.72 11.4667 15.72 10.4C15.72 8.13333 14.6533 7 12.52 7H8.32V13.72ZM23.5938 27L33.4738 1.24H41.4338L51.3138 27H43.4738L41.3138 21.52H33.5538L31.4338 27H23.5938ZM34.5538 16.12H40.3138L37.4338 8.56L34.5538 16.12ZM52.7344 27V23.24L63.9344 7H53.3344V1.24H73.8144V5.16L62.7344 21.24H74.0544V27H52.7344ZM76.6594 27V1.24H90.8194C93.4327 1.24 95.4194 1.85333 96.7794 3.08C98.1394 4.30666 98.8194 6.06667 98.8194 8.36C98.8194 9.69333 98.566 10.8133 98.0594 11.72C97.5794 12.6267 96.9394 13.3467 96.1394 13.88C97.2327 14.3067 98.0994 14.9333 98.7394 15.76C99.406 16.56 99.7394 17.76 99.7394 19.36C99.7394 21.7867 98.9927 23.6667 97.4994 25C96.006 26.3333 93.886 27 91.1394 27H76.6594ZM83.8994 11.52H88.7794C90.6194 11.52 91.5394 10.6933 91.5394 9.04C91.5394 8.21333 91.3127 7.58667 90.8594 7.16C90.4327 6.73333 89.6727 6.52 88.5794 6.52H83.8994V11.52ZM83.8994 21.76H89.0994C90.1127 21.76 90.8594 21.5467 91.3394 21.12C91.8194 20.6933 92.0594 19.9867 92.0594 19C92.0594 18.1733 91.8194 17.5467 91.3394 17.12C90.8594 16.6933 90.0594 16.48 88.9394 16.48H83.8994V21.76ZM114.918 27.4C110.651 27.4 107.384 26.36 105.118 24.28C102.878 22.2 101.758 18.84 101.758 14.2C101.758 11 102.264 8.42667 103.278 6.48C104.291 4.50667 105.771 3.08 107.718 2.2C109.691 1.29333 112.091 0.839998 114.918 0.839998C117.744 0.839998 120.131 1.29333 122.078 2.2C124.051 3.08 125.544 4.50667 126.558 6.48C127.571 8.42667 128.078 11 128.078 14.2C128.078 18.84 126.944 22.2 124.678 24.28C122.411 26.36 119.158 27.4 114.918 27.4ZM114.918 21C116.838 21 118.224 20.4667 119.078 19.4C119.958 18.3067 120.398 16.5733 120.398 14.2C120.398 11.6667 119.958 9.88 119.078 8.84C118.224 7.77333 116.838 7.24 114.918 7.24C112.998 7.24 111.598 7.77333 110.718 8.84C109.864 9.88 109.438 11.6667 109.438 14.2C109.438 16.5733 109.864 18.3067 110.718 19.4C111.598 20.4667 112.998 21 114.918 21ZM130.878 27V1.24H144.278C146.385 1.24 148.105 1.62667 149.438 2.4C150.798 3.17333 151.811 4.25333 152.478 5.64C153.145 7 153.478 8.58667 153.478 10.4C153.478 12.1333 153.038 13.6667 152.158 15C151.305 16.3067 150.158 17.3067 148.718 18C149.011 18.24 149.265 18.5333 149.478 18.88C149.691 19.2 149.931 19.6533 150.198 20.24L153.158 27H145.318L142.598 20.8C142.385 20.32 142.118 19.9867 141.798 19.8C141.505 19.5867 141.078 19.48 140.518 19.48H138.398V27H130.878ZM138.398 13.72H142.358C143.451 13.72 144.291 13.44 144.878 12.88C145.491 12.2933 145.798 11.4667 145.798 10.4C145.798 8.13333 144.731 7 142.598 7H138.398V13.72ZM156.269 27V1.24H163.789V10.32L171.589 1.24H180.149L171.069 11.8L180.789 27H172.789L166.429 16.6L163.789 19.56V27H156.269ZM180.977 27L190.857 1.24H198.817L208.697 27H200.857L198.697 21.52H190.937L188.817 27H180.977ZM191.937 16.12H197.697L194.817 8.56L191.937 16.12Z" fill="black"/>
</svg>
